<svg xmlns="http://www.w3.org/2000/svg" width="12.956" height="23.991" viewBox="0 0 12.956 23.991"><defs><style>.a{fill:#3e5179;}</style></defs><path class="a" d="M339.663,957.966c.912-.372.843-1.218.251-1.8-3.36-3.309-6.69-6.649-10.03-9.977a1.782,1.782,0,0,1-.262-.279,1.112,1.112,0,0,0,.243-.142q5.063-5.04,10.122-10.084a.992.992,0,0,0,.338-1.07.918.918,0,0,0-1.448-.438,2.24,2.24,0,0,0-.189.174q-5.441,5.424-10.876,10.854a1.549,1.549,0,0,0-.365.63.789.789,0,0,0,.217.756c.062.07.129.136.2.2q5.349,5.333,10.7,10.663a5.951,5.951,0,0,0,.681.51Z" transform="translate(-327.417 -933.975)"/></svg>