<svg xmlns="http://www.w3.org/2000/svg" width="12.956" height="23.991" viewBox="0 0 12.956 23.991"><defs><style>.a{fill:#3e5179;}</style></defs><path class="a" d="M1578.112,957.966c-.912-.372-.843-1.218-.251-1.8,3.36-3.309,6.689-6.649,10.03-9.977a1.776,1.776,0,0,0,.262-.279,1.114,1.114,0,0,1-.243-.142q-5.063-5.04-10.122-10.084a.992.992,0,0,1-.338-1.07.918.918,0,0,1,1.448-.438,2.249,2.249,0,0,1,.189.174q5.441,5.424,10.876,10.854a1.549,1.549,0,0,1,.365.63.79.79,0,0,1-.217.756c-.062.07-.129.136-.2.2q-5.349,5.333-10.7,10.663a5.958,5.958,0,0,1-.681.51Z" transform="translate(-1577.402 -933.975)"/></svg>