<svg xmlns="http://www.w3.org/2000/svg" width="18.202" height="18.198" viewBox="0 0 18.202 18.198"><defs><style>.a{fill:#fff;}</style></defs><path class="a" d="M1412.465,29.053a2.806,2.806,0,0,0-2.808-2.481c-1.65-.075-3.312-.038-4.961-.038a.638.638,0,0,0-.176.05,1.471,1.471,0,0,0,.113.176c1.146,1.146,2.266,2.3,3.45,3.4a3.481,3.481,0,0,0,1.247.705,3.167,3.167,0,0,0,2.506-.466C1412.667,30,1412.654,29.972,1412.465,29.053Zm-6.3-5.075c-.567.554-1.133,1.1-1.75,1.7.151.076.164.088.189.088,1.675,0,3.337.012,5.012-.025a2.533,2.533,0,0,0,1.851-.78,4.746,4.746,0,0,0,1.083-2.43.379.379,0,0,0-.139-.3c-1.624-1.209-3.11-1.4-4.621.126C1407.264,22.9,1406.711,23.437,1406.169,23.979Zm-3.438.906a3.253,3.253,0,0,0,.29.239.772.772,0,0,0,.063-.189c0-1.637,0-3.287-.025-4.924a2.536,2.536,0,0,0-.529-1.587,4.194,4.194,0,0,0-2.682-1.335.375.375,0,0,0-.315.126c-1.133,1.473-1.423,3.022.025,4.5Zm2.695,3.765c-.478-.479-.944-.957-1.486-1.5a2.089,2.089,0,0,0-.063.3c.013,1.687,0,3.375.038,5.062a2.366,2.366,0,0,0,1.347,2.1,6.405,6.405,0,0,0,1.221.5c.793.239.806.214,1.247-.478a3,3,0,0,0-.428-4.1C1406.7,29.9,1406.056,29.28,1405.426,28.65Zm2.229-7.3a2.419,2.419,0,0,0,.592-2.1,5.121,5.121,0,0,0-.856-1.99.612.612,0,0,0-.428-.189c-1.964.277-3.148,1.209-3.123,3.4.012.831,0,1.674,0,2.506v2.115c.113-.013.151,0,.164-.013C1405.224,23.84,1406.471,22.619,1407.655,21.347Zm-6.321,6.435c.365-.365.768-.693,1.158-1.045-.038-.038-.063-.088-.1-.126a.965.965,0,0,0-.264-.038c-1.6,0-3.211-.012-4.81.013a2.513,2.513,0,0,0-2.367,1.536,9.939,9.939,0,0,0-.529,1.6.412.412,0,0,0,.1.34,4.123,4.123,0,0,0,1.939.944,3.013,3.013,0,0,0,2.708-1.058C1399.885,29.229,1400.6,28.5,1401.334,27.781Zm-3.677-1.99h4.773c-.05-.113-.05-.151-.076-.176-1.222-1.221-2.43-2.455-3.677-3.639a2.294,2.294,0,0,0-1.624-.617,4.573,4.573,0,0,0-2.531.932.4.4,0,0,0-.151.3C1394.609,24.306,1395.352,25.792,1397.657,25.792Zm5.453,1.4a.693.693,0,0,0-.176.088c-1.2,1.209-2.417,2.418-3.6,3.652a2.4,2.4,0,0,0-.642,1.889,4.707,4.707,0,0,0,.919,2.292.425.425,0,0,0,.327.151,4.36,4.36,0,0,0,2.065-.743A2.919,2.919,0,0,0,1403.109,32c.012-1.108,0-2.2,0-3.312Z" transform="translate(-1394.369 -17.064)"/></svg>